<svg width="362" height="152" viewBox="0 0 362 152" fill="none" xmlns="http://www.w3.org/2000/svg">
<rect y="0.139038" width="360.641" height="136.217" rx="13.3772" fill="url(#paint0_linear_507_1403)"/>
<g opacity="0.2" filter="url(#filter0_f_507_1403)">
<ellipse cx="67.0121" cy="117.948" rx="36.8886" ry="13.6136" fill="#191919"/>
</g>
<rect x="16.3214" y="19.5298" width="101.381" height="101.381" rx="17.2512" fill="url(#paint1_linear_507_1403)"/>
<rect x="16.3214" y="19.5298" width="101.381" height="101.381" rx="17.2512" stroke="#3D3D3D" stroke-width="1.3801"/>
<mask id="mask0_507_1403" style="mask-type:alpha" maskUnits="userSpaceOnUse" x="21" y="22" width="91" height="92">
<circle cx="66.2551" cy="67.8937" r="45.1296" fill="black"/>
</mask>
<g mask="url(#mask0_507_1403)">
<circle cx="66.2551" cy="67.8937" r="45.1296" fill="black"/>
<g filter="url(#filter1_fn_507_1403)">
<circle cx="66.2551" cy="67.8937" r="45.1296" fill="url(#paint2_linear_507_1403)"/>
</g>
<g filter="url(#filter2_f_507_1403)">
<circle cx="65.8625" cy="72.9953" r="40.8129" stroke="url(#paint3_linear_507_1403)" stroke-width="1.56973" stroke-linecap="round"/>
</g>
</g>
<circle cx="65.8625" cy="72.9953" r="40.028" fill="black"/>
<g opacity="0.2" filter="url(#filter3_f_507_1403)">
<ellipse cx="180.896" cy="129.05" rx="51.4086" ry="13.801" fill="#191919"/>
</g>
<path d="M147.499 19.5302H214.377C223.905 19.5302 231.629 27.2535 231.629 36.7811V103.659C231.629 113.187 223.905 120.911 214.377 120.911H147.499C137.971 120.911 130.248 113.187 130.248 103.659V36.7811C130.248 27.2535 137.971 19.5302 147.499 19.5302Z" fill="url(#paint4_linear_507_1403)"/>
<path d="M147.499 19.5302H214.377C223.905 19.5302 231.629 27.2535 231.629 36.7811V103.659C231.629 113.187 223.905 120.911 214.377 120.911H147.499C137.971 120.911 130.248 113.187 130.248 103.659V36.7811C130.248 27.2535 137.971 19.5302 147.499 19.5302Z" stroke="#3D3D3D" stroke-width="1.3801"/>
<mask id="mask1_507_1403" style="mask-type:alpha" maskUnits="userSpaceOnUse" x="135" y="22" width="91" height="92">
<circle cx="180.181" cy="67.8937" r="45.1296" fill="black"/>
</mask>
<g mask="url(#mask1_507_1403)">
<circle cx="180.181" cy="67.8937" r="45.1296" fill="black"/>
<g filter="url(#filter4_fn_507_1403)">
<circle cx="180.181" cy="67.8937" r="45.1296" fill="url(#paint5_linear_507_1403)"/>
</g>
<g filter="url(#filter5_f_507_1403)">
<circle cx="179.789" cy="72.9953" r="40.8129" stroke="url(#paint6_linear_507_1403)" stroke-width="1.56973" stroke-linecap="round"/>
</g>
</g>
<circle cx="179.789" cy="72.9953" r="40.028" fill="black"/>
<g opacity="0.2" filter="url(#filter6_f_507_1403)">
<ellipse cx="294.823" cy="129.05" rx="51.4086" ry="13.801" fill="#191919"/>
</g>
<path d="M261.426 19.5302H328.304C337.831 19.5302 345.556 27.2535 345.556 36.7811V103.659C345.556 113.187 337.831 120.911 328.304 120.911H261.426C251.898 120.911 244.175 113.187 244.175 103.659V36.7811C244.175 27.2535 251.898 19.5302 261.426 19.5302Z" fill="url(#paint7_linear_507_1403)"/>
<path d="M261.426 19.5302H328.304C337.831 19.5302 345.556 27.2535 345.556 36.7811V103.659C345.556 113.187 337.831 120.911 328.304 120.911H261.426C251.898 120.911 244.175 113.187 244.175 103.659V36.7811C244.175 27.2535 251.898 19.5302 261.426 19.5302Z" stroke="#3D3D3D" stroke-width="1.3801"/>
<mask id="mask2_507_1403" style="mask-type:alpha" maskUnits="userSpaceOnUse" x="248" y="22" width="92" height="92">
<circle cx="294.108" cy="67.8937" r="45.1296" fill="black"/>
</mask>
<g mask="url(#mask2_507_1403)">
<circle cx="294.108" cy="67.8937" r="45.1296" fill="black"/>
<g filter="url(#filter7_fn_507_1403)">
<circle cx="294.108" cy="67.8937" r="45.1296" fill="url(#paint8_linear_507_1403)"/>
</g>
<g filter="url(#filter8_f_507_1403)">
<circle cx="293.716" cy="72.9953" r="40.8129" stroke="url(#paint9_linear_507_1403)" stroke-width="1.56973" stroke-linecap="round"/>
</g>
</g>
<circle cx="293.716" cy="72.9953" r="40.028" fill="black"/>
<mask id="mask3_507_1403" style="mask-type:alpha" maskUnits="userSpaceOnUse" x="0" y="0" width="361" height="54">
<path d="M36.827 8.31699C6.18883 8.31699 0 46.4581 0 53.9029L1.7323e-05 13.6088C2.05542e-05 6.09287 6.09289 0 13.6088 0H347.032C354.548 0 360.641 6.09288 360.641 13.6088V53.9029C360.641 45.487 353.774 8.31699 324.721 8.31699H36.827Z" fill="black"/>
</mask>
<g mask="url(#mask3_507_1403)">
<path d="M95.5346 10.4839C39.5069 10.4839 20.0108 62.4846 18.5805 73.1354C18.5129 73.6392 17.9573 73.9437 17.5045 73.7126L1.48396 65.5318C0.57321 65.0667 0 64.1304 0 63.1078V13.6088C0 6.09288 6.09287 0 13.6088 0H347.032C354.548 0 360.641 6.09287 360.641 13.6088V63.1078C360.641 64.1304 360.068 65.0667 359.157 65.5318L343.137 73.7126C342.684 73.9437 342.133 73.6314 342.074 73.1264C340.763 61.8755 321.505 10.4839 259.077 10.4839H95.5346Z" fill="black"/>
<g filter="url(#filter9_fn_507_1403)">
<path d="M70.448 13.3181C15.0599 13.3181 17.4881 29.4032 17.8338 37.3545C17.8558 37.8619 17.3262 38.1842 16.8735 37.9539L0.783459 29.7678C-0.129277 29.3034 -0.704102 28.366 -0.704102 27.3419V12.5101C-0.704102 4.99412 5.38878 -1.09875 12.9047 -1.09875H347.736C355.252 -1.09875 361.345 4.99412 361.345 12.5101V27.0795C361.345 28.2363 360.614 29.2667 359.522 29.6486L343.684 35.1886C343.241 35.3433 342.78 35.017 342.78 34.5483C342.771 26.0858 341.495 13.3181 279.343 13.3181H70.448Z" fill="url(#paint10_linear_507_1403)"/>
</g>
</g>
<defs>
<filter id="filter0_f_507_1403" x="21.4284" y="95.6391" width="91.1677" height="44.6176" filterUnits="userSpaceOnUse" color-interpolation-filters="sRGB">
<feFlood flood-opacity="0" result="BackgroundImageFix"/>
<feBlend mode="normal" in="SourceGraphic" in2="BackgroundImageFix" result="shape"/>
<feGaussianBlur stdDeviation="4.34758" result="effect1_foregroundBlur_507_1403"/>
</filter>
<filter id="filter1_fn_507_1403" x="13.5908" y="15.2294" width="105.329" height="105.329" filterUnits="userSpaceOnUse" color-interpolation-filters="sRGB">
<feFlood flood-opacity="0" result="BackgroundImageFix"/>
<feBlend mode="normal" in="SourceGraphic" in2="BackgroundImageFix" result="shape"/>
<feGaussianBlur stdDeviation="3.76734" result="effect1_foregroundBlur_507_1403"/>
<feTurbulence type="fractalNoise" baseFrequency="3.7952122688293457 3.7952122688293457" stitchTiles="stitch" numOctaves="3" result="noise" seed="914" />
<feColorMatrix in="noise" type="luminanceToAlpha" result="alphaNoise" />
<feComponentTransfer in="alphaNoise" result="coloredNoise1">
<feFuncA type="discrete" tableValues="1 1 1 1 1 1 1 1 1 1 1 1 1 1 1 1 1 1 1 1 1 1 1 1 1 1 1 1 1 1 1 1 1 1 1 1 1 1 1 1 1 1 1 1 1 1 1 1 1 1 1 0 0 0 0 0 0 0 0 0 0 0 0 0 0 0 0 0 0 0 0 0 0 0 0 0 0 0 0 0 0 0 0 0 0 0 0 0 0 0 0 0 0 0 0 0 0 0 0 0 "/>
</feComponentTransfer>
<feComposite operator="in" in2="effect1_foregroundBlur_507_1403" in="coloredNoise1" result="noise1Clipped" />
<feFlood flood-color="rgba(0, 0, 0, 0.25)" result="color1Flood" />
<feComposite operator="in" in2="noise1Clipped" in="color1Flood" result="color1" />
<feMerge result="effect2_noise_507_1403">
<feMergeNode in="effect1_foregroundBlur_507_1403" />
<feMergeNode in="color1" />
</feMerge>
</filter>
<filter id="filter2_f_507_1403" x="20.8897" y="28.0227" width="89.9456" height="89.9453" filterUnits="userSpaceOnUse" color-interpolation-filters="sRGB">
<feFlood flood-opacity="0" result="BackgroundImageFix"/>
<feBlend mode="normal" in="SourceGraphic" in2="BackgroundImageFix" result="shape"/>
<feGaussianBlur stdDeviation="1.68746" result="effect1_foregroundBlur_507_1403"/>
</filter>
<filter id="filter3_f_507_1403" x="120.793" y="106.554" width="120.208" height="44.9923" filterUnits="userSpaceOnUse" color-interpolation-filters="sRGB">
<feFlood flood-opacity="0" result="BackgroundImageFix"/>
<feBlend mode="normal" in="SourceGraphic" in2="BackgroundImageFix" result="shape"/>
<feGaussianBlur stdDeviation="4.34758" result="effect1_foregroundBlur_507_1403"/>
</filter>
<filter id="filter4_fn_507_1403" x="127.517" y="15.2294" width="105.329" height="105.329" filterUnits="userSpaceOnUse" color-interpolation-filters="sRGB">
<feFlood flood-opacity="0" result="BackgroundImageFix"/>
<feBlend mode="normal" in="SourceGraphic" in2="BackgroundImageFix" result="shape"/>
<feGaussianBlur stdDeviation="3.76734" result="effect1_foregroundBlur_507_1403"/>
<feTurbulence type="fractalNoise" baseFrequency="3.7952122688293457 3.7952122688293457" stitchTiles="stitch" numOctaves="3" result="noise" seed="914" />
<feColorMatrix in="noise" type="luminanceToAlpha" result="alphaNoise" />
<feComponentTransfer in="alphaNoise" result="coloredNoise1">
<feFuncA type="discrete" tableValues="1 1 1 1 1 1 1 1 1 1 1 1 1 1 1 1 1 1 1 1 1 1 1 1 1 1 1 1 1 1 1 1 1 1 1 1 1 1 1 1 1 1 1 1 1 1 1 1 1 1 1 0 0 0 0 0 0 0 0 0 0 0 0 0 0 0 0 0 0 0 0 0 0 0 0 0 0 0 0 0 0 0 0 0 0 0 0 0 0 0 0 0 0 0 0 0 0 0 0 0 "/>
</feComponentTransfer>
<feComposite operator="in" in2="effect1_foregroundBlur_507_1403" in="coloredNoise1" result="noise1Clipped" />
<feFlood flood-color="rgba(0, 0, 0, 0.25)" result="color1Flood" />
<feComposite operator="in" in2="noise1Clipped" in="color1Flood" result="color1" />
<feMerge result="effect2_noise_507_1403">
<feMergeNode in="effect1_foregroundBlur_507_1403" />
<feMergeNode in="color1" />
</feMerge>
</filter>
<filter id="filter5_f_507_1403" x="134.816" y="28.0227" width="89.9456" height="89.9453" filterUnits="userSpaceOnUse" color-interpolation-filters="sRGB">
<feFlood flood-opacity="0" result="BackgroundImageFix"/>
<feBlend mode="normal" in="SourceGraphic" in2="BackgroundImageFix" result="shape"/>
<feGaussianBlur stdDeviation="1.68746" result="effect1_foregroundBlur_507_1403"/>
</filter>
<filter id="filter6_f_507_1403" x="234.719" y="106.554" width="120.208" height="44.9923" filterUnits="userSpaceOnUse" color-interpolation-filters="sRGB">
<feFlood flood-opacity="0" result="BackgroundImageFix"/>
<feBlend mode="normal" in="SourceGraphic" in2="BackgroundImageFix" result="shape"/>
<feGaussianBlur stdDeviation="4.34758" result="effect1_foregroundBlur_507_1403"/>
</filter>
<filter id="filter7_fn_507_1403" x="241.444" y="15.2294" width="105.329" height="105.329" filterUnits="userSpaceOnUse" color-interpolation-filters="sRGB">
<feFlood flood-opacity="0" result="BackgroundImageFix"/>
<feBlend mode="normal" in="SourceGraphic" in2="BackgroundImageFix" result="shape"/>
<feGaussianBlur stdDeviation="3.76734" result="effect1_foregroundBlur_507_1403"/>
<feTurbulence type="fractalNoise" baseFrequency="3.7952122688293457 3.7952122688293457" stitchTiles="stitch" numOctaves="3" result="noise" seed="914" />
<feColorMatrix in="noise" type="luminanceToAlpha" result="alphaNoise" />
<feComponentTransfer in="alphaNoise" result="coloredNoise1">
<feFuncA type="discrete" tableValues="1 1 1 1 1 1 1 1 1 1 1 1 1 1 1 1 1 1 1 1 1 1 1 1 1 1 1 1 1 1 1 1 1 1 1 1 1 1 1 1 1 1 1 1 1 1 1 1 1 1 1 0 0 0 0 0 0 0 0 0 0 0 0 0 0 0 0 0 0 0 0 0 0 0 0 0 0 0 0 0 0 0 0 0 0 0 0 0 0 0 0 0 0 0 0 0 0 0 0 0 "/>
</feComponentTransfer>
<feComposite operator="in" in2="effect1_foregroundBlur_507_1403" in="coloredNoise1" result="noise1Clipped" />
<feFlood flood-color="rgba(0, 0, 0, 0.25)" result="color1Flood" />
<feComposite operator="in" in2="noise1Clipped" in="color1Flood" result="color1" />
<feMerge result="effect2_noise_507_1403">
<feMergeNode in="effect1_foregroundBlur_507_1403" />
<feMergeNode in="color1" />
</feMerge>
</filter>
<filter id="filter8_f_507_1403" x="248.743" y="28.0227" width="89.9456" height="89.9453" filterUnits="userSpaceOnUse" color-interpolation-filters="sRGB">
<feFlood flood-opacity="0" result="BackgroundImageFix"/>
<feBlend mode="normal" in="SourceGraphic" in2="BackgroundImageFix" result="shape"/>
<feGaussianBlur stdDeviation="1.68746" result="effect1_foregroundBlur_507_1403"/>
</filter>
<filter id="filter9_fn_507_1403" x="-6.55589" y="-6.95055" width="373.753" height="50.832" filterUnits="userSpaceOnUse" color-interpolation-filters="sRGB">
<feFlood flood-opacity="0" result="BackgroundImageFix"/>
<feBlend mode="normal" in="SourceGraphic" in2="BackgroundImageFix" result="shape"/>
<feGaussianBlur stdDeviation="2.9259" result="effect1_foregroundBlur_507_1403"/>
<feTurbulence type="fractalNoise" baseFrequency="4.8987846374511719 4.8987846374511719" stitchTiles="stitch" numOctaves="3" result="noise" seed="914" />
<feColorMatrix in="noise" type="luminanceToAlpha" result="alphaNoise" />
<feComponentTransfer in="alphaNoise" result="coloredNoise1">
<feFuncA type="discrete" tableValues="1 1 1 1 1 1 1 1 1 1 1 1 1 1 1 1 1 1 1 1 1 1 1 1 1 1 1 1 1 1 1 1 1 1 1 1 1 1 1 1 1 1 1 1 1 1 1 1 1 1 1 0 0 0 0 0 0 0 0 0 0 0 0 0 0 0 0 0 0 0 0 0 0 0 0 0 0 0 0 0 0 0 0 0 0 0 0 0 0 0 0 0 0 0 0 0 0 0 0 0 "/>
</feComponentTransfer>
<feComposite operator="in" in2="effect1_foregroundBlur_507_1403" in="coloredNoise1" result="noise1Clipped" />
<feFlood flood-color="rgba(0, 0, 0, 0.25)" result="color1Flood" />
<feComposite operator="in" in2="noise1Clipped" in="color1Flood" result="color1" />
<feMerge result="effect2_noise_507_1403">
<feMergeNode in="effect1_foregroundBlur_507_1403" />
<feMergeNode in="color1" />
</feMerge>
</filter>
<linearGradient id="paint0_linear_507_1403" x1="180.321" y1="0.139038" x2="180.321" y2="136.357" gradientUnits="userSpaceOnUse">
<stop stop-color="#1C1C1C"/>
<stop offset="1"/>
</linearGradient>
<linearGradient id="paint1_linear_507_1403" x1="67.0119" y1="18.8397" x2="67.0119" y2="121.601" gradientUnits="userSpaceOnUse">
<stop stop-color="#3F3F3F"/>
<stop offset="1" stop-color="#202020"/>
</linearGradient>
<linearGradient id="paint2_linear_507_1403" x1="66.2551" y1="22.764" x2="66.6476" y2="74.9574" gradientUnits="userSpaceOnUse">
<stop stop-color="#CDCDCD"/>
<stop offset="0.204452" stop-color="#7E7E7E" stop-opacity="0"/>
</linearGradient>
<linearGradient id="paint3_linear_507_1403" x1="65.8625" y1="18.6964" x2="65.8625" y2="113.023" gradientUnits="userSpaceOnUse">
<stop stop-color="white"/>
<stop offset="0.480474" stop-color="white" stop-opacity="0"/>
</linearGradient>
<linearGradient id="paint4_linear_507_1403" x1="180.938" y1="18.8397" x2="180.938" y2="121.601" gradientUnits="userSpaceOnUse">
<stop stop-color="#3F3F3F"/>
<stop offset="1" stop-color="#202020"/>
</linearGradient>
<linearGradient id="paint5_linear_507_1403" x1="180.181" y1="22.764" x2="180.574" y2="74.9574" gradientUnits="userSpaceOnUse">
<stop stop-color="#CDCDCD"/>
<stop offset="0.204452" stop-color="#7E7E7E" stop-opacity="0"/>
</linearGradient>
<linearGradient id="paint6_linear_507_1403" x1="179.789" y1="18.6964" x2="179.789" y2="113.023" gradientUnits="userSpaceOnUse">
<stop stop-color="white"/>
<stop offset="0.480474" stop-color="white" stop-opacity="0"/>
</linearGradient>
<linearGradient id="paint7_linear_507_1403" x1="294.865" y1="18.8397" x2="294.865" y2="121.601" gradientUnits="userSpaceOnUse">
<stop stop-color="#3F3F3F"/>
<stop offset="1" stop-color="#202020"/>
</linearGradient>
<linearGradient id="paint8_linear_507_1403" x1="294.108" y1="22.764" x2="294.501" y2="74.9574" gradientUnits="userSpaceOnUse">
<stop stop-color="#CDCDCD"/>
<stop offset="0.204452" stop-color="#7E7E7E" stop-opacity="0"/>
</linearGradient>
<linearGradient id="paint9_linear_507_1403" x1="293.716" y1="18.6964" x2="293.716" y2="113.023" gradientUnits="userSpaceOnUse">
<stop stop-color="white"/>
<stop offset="0.480474" stop-color="white" stop-opacity="0"/>
</linearGradient>
<linearGradient id="paint10_linear_507_1403" x1="180.321" y1="-1.09875" x2="180.321" y2="29.0109" gradientUnits="userSpaceOnUse">
<stop stop-color="#707070"/>
<stop offset="0.341346" stop-color="#7E7E7E" stop-opacity="0"/>
</linearGradient>
</defs>
</svg>
